<?xml version="1.0" encoding="UTF-8"?>
<svg id="Camada_2" data-name="Camada 2" xmlns="http://www.w3.org/2000/svg" viewBox="0 0 113.61 129.35">
  <defs>
    <style>
      .cls-1 {
        fill: #00e990;
        stroke-width: 0px;
      }
    </style>
  </defs>
  <g id="Camada_1-2" data-name="Camada 1">
    <g>
      <rect class="cls-1" x="51.37" y="0" width="10.88" height="59"/>
      <path class="cls-1" d="m71.26,17.63l-1.16-.31v11.27l.64.21c19.14,6.11,31.99,23.69,31.99,43.74,0,25.32-20.6,45.92-45.93,45.92S10.88,97.87,10.88,72.55c0-20.06,12.86-37.64,31.99-43.74l.64-.21v-11.27l-1.16.31C17.42,24.2,0,46.78,0,72.55c0,31.32,25.48,56.81,56.81,56.81s56.81-25.48,56.81-56.81c0-25.77-17.42-48.35-42.36-54.91Z"/>
    </g>
  </g>
</svg>