<svg width="15" height="20" viewBox="0 0 15 20" fill="none" xmlns="http://www.w3.org/2000/svg">
<path d="M7.09436 8C6.93424 8 6.7852 7.97445 6.64724 7.92334C6.50926 7.87223 6.3781 7.7845 6.25376 7.66016L0.282479 1.68889C0.098504 1.50493 0.00439094 1.2737 0.000139239 0.995196C-0.0041346 0.716688 0.0899785 0.481193 0.282479 0.288715C0.474956 0.0962375 0.708312 0 0.982547 0C1.25678 0 1.49014 0.0962375 1.68262 0.288715L7.09436 5.70046L12.5061 0.288715C12.6901 0.104763 12.9213 0.0106499 13.1998 0.00637607C13.4783 0.00212437 13.7138 0.0962375 13.9062 0.288715C14.0987 0.481193 14.195 0.714561 14.195 0.988818C14.195 1.26305 14.0987 1.49641 13.9062 1.68889L7.93497 7.66016C7.81063 7.7845 7.67947 7.87223 7.54149 7.92334C7.40353 7.97445 7.25449 8 7.09436 8Z" fill="#00E990"/>
<path opacity="0.5" d="M7.09436 20C6.93424 20 6.7852 19.9744 6.64724 19.9233C6.50926 19.8722 6.3781 19.7845 6.25376 19.6602L0.282479 13.6889C0.098504 13.5049 0.00439094 13.2737 0.000139239 12.9952C-0.0041346 12.7167 0.0899785 12.4812 0.282479 12.2887C0.474956 12.0962 0.708312 12 0.982547 12C1.25678 12 1.49014 12.0962 1.68262 12.2887L7.09436 17.7005L12.5061 12.2887C12.6901 12.1048 12.9213 12.0106 13.1998 12.0064C13.4783 12.0021 13.7138 12.0962 13.9062 12.2887C14.0987 12.4812 14.195 12.7146 14.195 12.9888C14.195 13.2631 14.0987 13.4964 13.9062 13.6889L7.93497 19.6602C7.81063 19.7845 7.67947 19.8722 7.54149 19.9233C7.40353 19.9744 7.25449 20 7.09436 20Z" fill="#00E990"/>
</svg>
