<svg width="40" height="40" viewBox="0 0 40 40" fill="none" xmlns="http://www.w3.org/2000/svg">
<rect width="40" height="40" rx="5" fill="#00D282"/>
<path d="M24.2412 20.9293H13.9233C13.6617 20.9293 13.4424 20.8408 13.2654 20.6639C13.0885 20.4869 13 20.2676 13 20.006C13 19.7444 13.0885 19.5251 13.2654 19.3481C13.4424 19.1712 13.6617 19.0827 13.9233 19.0827H24.2412L19.717 14.5585C19.5323 14.3739 19.4439 14.1584 19.4516 13.9122C19.4593 13.666 19.5554 13.4506 19.7401 13.2659C19.9248 13.0966 20.1402 13.0082 20.3864 13.0005C20.6326 12.9928 20.8481 13.0813 21.0327 13.2659L27.1265 19.3597C27.2188 19.452 27.2842 19.552 27.3227 19.6598C27.3612 19.7675 27.3804 19.8829 27.3804 20.006C27.3804 20.1291 27.3612 20.2445 27.3227 20.3522C27.2842 20.46 27.2188 20.56 27.1265 20.6523L21.0327 26.7461C20.8634 26.9154 20.6518 27 20.3979 27C20.144 27 19.9248 26.9154 19.7401 26.7461C19.5554 26.5614 19.4631 26.3421 19.4631 26.0882C19.4631 25.8343 19.5554 25.615 19.7401 25.4304L24.2412 20.9293Z" fill="black"/>
</svg>
