<svg width="36" height="36" viewBox="0 0 36 36" fill="none" xmlns="http://www.w3.org/2000/svg">
<path d="M22.7798 18L11.2067 6.42694C10.9856 6.20579 10.8765 5.93991 10.8793 5.62931C10.8822 5.31874 10.9943 5.05288 11.2154 4.83173C11.4366 4.61058 11.7024 4.5 12.013 4.5C12.3236 4.5 12.5894 4.61058 12.8106 4.83173L24.2654 16.2952C24.5077 16.5375 24.6846 16.8077 24.7962 17.1058C24.9077 17.4039 24.9635 17.7019 24.9635 18C24.9635 18.2981 24.9077 18.5962 24.7962 18.8942C24.6846 19.1923 24.5077 19.4625 24.2654 19.7048L12.802 31.1683C12.5808 31.3894 12.3164 31.4986 12.0087 31.4957C11.701 31.4928 11.4366 31.3808 11.2154 31.1596C10.9943 30.9385 10.8837 30.6726 10.8837 30.362C10.8837 30.0515 10.9943 29.7856 11.2154 29.5644L22.7798 18Z" fill="white"/>
</svg>
