<svg width="36" height="36" viewBox="0 0 36 36" fill="none" xmlns="http://www.w3.org/2000/svg">
<path d="M13.2202 18L24.7933 6.42694C25.0144 6.20579 25.1235 5.93991 25.1207 5.62931C25.1178 5.31874 25.0057 5.05288 24.7846 4.83173C24.5634 4.61058 24.2976 4.5 23.987 4.5C23.6764 4.5 23.4106 4.61058 23.1894 4.83173L11.7346 16.2952C11.4923 16.5375 11.3154 16.8077 11.2038 17.1058C11.0923 17.4039 11.0365 17.7019 11.0365 18C11.0365 18.2981 11.0923 18.5962 11.2038 18.8942C11.3154 19.1923 11.4923 19.4625 11.7346 19.7048L23.198 31.1683C23.4192 31.3894 23.6836 31.4986 23.9913 31.4957C24.299 31.4928 24.5634 31.3808 24.7846 31.1596C25.0057 30.9385 25.1163 30.6726 25.1163 30.362C25.1163 30.0515 25.0057 29.7856 24.7846 29.5644L13.2202 18Z" fill="white"/>
</svg>
