<svg width="14" height="14" viewBox="0 0 14 14" fill="none" xmlns="http://www.w3.org/2000/svg">
<path d="M7.00008 1.16675C3.78536 1.16675 1.16675 3.78536 1.16675 7.00008C1.16675 10.2148 3.78536 12.8334 7.00008 12.8334C7.71991 12.8334 8.41183 12.7025 9.04972 12.4631C9.12297 12.4374 9.19033 12.3972 9.24787 12.3451C9.3054 12.293 9.35195 12.2299 9.38478 12.1595C9.41762 12.0891 9.43608 12.0129 9.43908 11.9354C9.44208 11.8578 9.42957 11.7804 9.40227 11.7077C9.37497 11.635 9.33343 11.5685 9.2801 11.5121C9.22676 11.4556 9.1627 11.4104 9.09166 11.3791C9.02063 11.3477 8.94405 11.3309 8.86642 11.3295C8.78879 11.3281 8.71166 11.3423 8.63957 11.3711C8.13004 11.5623 7.57875 11.6667 7.00008 11.6667C4.41589 11.6667 2.33341 9.58427 2.33341 7.00008C2.33341 4.41589 4.41589 2.33341 7.00008 2.33341C9.58427 2.33341 11.6667 4.41589 11.6667 7.00008V7.58342C11.6667 8.2348 11.1515 8.75008 10.5001 8.75008C9.84869 8.75008 9.33342 8.2348 9.33342 7.58342V7.00008V4.66675C9.33457 4.51875 9.27944 4.37585 9.17918 4.26698C9.07892 4.15811 8.94102 4.09142 8.79343 4.08041C8.64584 4.0694 8.49958 4.1149 8.38428 4.20769C8.26898 4.30048 8.19325 4.43363 8.17245 4.58016C7.75828 4.26871 7.25762 4.08342 6.70842 4.08342C5.221 4.08342 4.08342 5.43671 4.08342 7.00008C4.08342 8.56346 5.221 9.91675 6.70842 9.91675C7.48306 9.91675 8.16084 9.54772 8.63444 8.9751C9.06126 9.5445 9.73911 9.91675 10.5001 9.91675C11.7819 9.91675 12.8334 8.86519 12.8334 7.58342V7.00008C12.8334 3.78536 10.2148 1.16675 7.00008 1.16675ZM6.70842 5.25008C7.47266 5.25008 8.16675 5.99037 8.16675 7.00008C8.16675 8.00979 7.47266 8.75008 6.70842 8.75008C5.94417 8.75008 5.25008 8.00979 5.25008 7.00008C5.25008 5.99037 5.94417 5.25008 6.70842 5.25008Z" fill="#00E990"/>
</svg>
