<svg width="14" height="14" viewBox="0 0 14 14" fill="none" xmlns="http://www.w3.org/2000/svg">
<path d="M7.00008 1.16675C3.78358 1.16675 1.16675 3.78358 1.16675 7.00008C1.16675 10.2166 3.78358 12.8334 7.00008 12.8334C10.2166 12.8334 12.8334 10.2166 12.8334 7.00008C12.8334 3.78358 10.2166 1.16675 7.00008 1.16675ZM8.33037 8.91371C8.24492 8.99917 8.13292 9.04175 8.02092 9.04175C7.90892 9.04175 7.79692 8.99917 7.71146 8.91371L6.25312 7.45537C6.17116 7.37312 6.12508 7.262 6.12508 7.14592V3.93758C6.12508 3.69579 6.32079 3.50008 6.56258 3.50008C6.80437 3.50008 7.00008 3.69579 7.00008 3.93758V6.96479L8.33037 8.29508C8.501 8.46571 8.501 8.74279 8.33037 8.91371Z" fill="#00E990"/>
</svg>
