<svg width="50" height="40" viewBox="0 0 50 40" fill="none" xmlns="http://www.w3.org/2000/svg">
<path d="M3.85001 8.75004V8.65004H3.75001H3.33334C2.69857 8.65004 2.18334 8.13481 2.18334 7.50004V3.33337C2.18334 2.6986 2.69857 2.18337 3.33334 2.18337H36.6667C37.3014 2.18337 37.8167 2.6986 37.8167 3.33337V7.50004C37.8167 8.13481 37.3014 8.65004 36.6667 8.65004H36.25H36.15V8.75004V21.6667V25.8334V36.6667C36.15 37.3015 35.6348 37.8167 35 37.8167H28.3333C27.5866 37.8167 26.8716 37.5195 26.3436 36.99L26.3434 36.9898C25.8139 36.4618 25.5167 35.7467 25.5167 35V32.5C25.5167 30.3434 26.3891 28.3894 27.8019 26.975L27.8946 26.8821L27.7805 26.8174C27.4285 26.6177 27.1833 26.2587 27.1833 25.8334V21.6667C27.1833 21.4835 27.2371 21.3161 27.3189 21.1554L27.3598 21.0751L27.2842 21.0261C24.2172 19.0392 22.1833 15.5925 22.1833 11.6667V8.75004V8.65004H22.0833H17.9167H17.8167V8.75004V11.6667C17.8167 15.5925 15.7828 19.0392 12.7158 21.0261L12.6402 21.0751L12.6811 21.1554C12.7629 21.3161 12.8167 21.4835 12.8167 21.6667V25.8334C12.8167 26.2587 12.5715 26.6177 12.2195 26.8174L12.1054 26.8821L12.1981 26.975C13.6109 28.3894 14.4833 30.3434 14.4833 32.5V35C14.4833 35.7467 14.1862 36.4618 13.6566 36.9898L13.6564 36.99C13.1285 37.5195 12.4134 37.8167 11.6667 37.8167H5.00001C4.36524 37.8167 3.85001 37.3015 3.85001 36.6667V25.8334V21.6667V8.75004ZM4.58334 4.48337H4.48334V4.58337V6.25004V6.35004H4.58334H5.00001H16.6667H23.3333H35H35.4167H35.5167V6.25004V4.58337V4.48337H35.4167H4.58334ZM6.25001 8.65004H6.15001V8.75004V15.3939V15.5522L6.29298 15.4842C8.91474 14.2367 10.8145 11.7434 11.2416 8.76423L11.2579 8.65004H11.1426H6.25001ZM13.6719 8.65004H13.5823L13.5725 8.73906C13.097 13.041 10.1656 16.5729 6.21654 17.9755L6.15001 17.9991V18.0697V20.4167V20.5167H6.25001H6.66668C11.5553 20.5167 15.5167 16.5536 15.5167 11.6667V8.75004V8.65004H15.4167H13.6719ZM24.5833 8.65004H24.4833V8.75004V11.6667C24.4833 16.5536 28.4448 20.5167 33.3333 20.5167H33.75H33.85V20.4167V18.0697V17.9991L33.7835 17.9755C29.8345 16.5729 26.903 13.041 26.4275 8.73906L26.4177 8.65004H26.3281H24.5833ZM28.8574 8.65004H28.7421L28.7584 8.76423C29.1855 11.7434 31.0853 14.2367 33.707 15.4842L33.85 15.5522V15.3939V8.75004V8.65004H33.75H28.8574ZM6.25001 22.8167H6.15001V22.9167V24.5834V24.6834H6.25001H6.66668H10.4167H10.5167V24.5834V22.9167V22.8167H10.4167H6.66668H6.25001ZM29.5833 22.8167H29.4833V22.9167V24.5834V24.6834H29.5833H33.75H33.85V24.5834V22.9167V22.8167H33.75H29.5833ZM6.25001 26.9834H6.15001V27.0834V35.4167V35.5167H6.25001H11.6667C11.8017 35.5167 11.9355 35.4651 12.0336 35.367C12.1317 35.2689 12.1833 35.1351 12.1833 35V32.5C12.1833 29.4531 9.71357 26.9834 6.66668 26.9834H6.25001ZM33.85 27.0834V26.9834H33.75H33.3333C30.2864 26.9834 27.8167 29.4531 27.8167 32.5V35C27.8167 35.1351 27.8683 35.2689 27.9664 35.367C28.0645 35.4651 28.1983 35.5167 28.3333 35.5167H33.75H33.85V35.4167V27.0834Z" fill="white" stroke="#142026" stroke-width="0.2"/>
<path d="M44.9433 10.2502C45.2191 10.0435 45.5541 9.96736 45.871 10.0126C46.1879 10.0578 46.4879 10.225 46.6946 10.5009C48.5963 13.0309 49.7252 16.1762 49.7252 19.5829C49.7252 22.9895 48.5963 26.1349 46.6946 28.6649C46.2813 29.2166 45.495 29.3289 44.9433 28.9156C44.3916 28.5006 44.2809 27.7175 44.6959 27.1675C46.2826 25.0542 47.2252 22.4262 47.2252 19.5829C47.2252 16.7395 46.2826 14.1116 44.6959 11.9982C44.2809 11.4482 44.3916 10.6652 44.9433 10.2502Z" fill="#00E990"/>
<path d="M40.4999 13.5835C40.7758 13.3769 41.111 13.3007 41.4277 13.3459C41.7443 13.3911 42.0437 13.5584 42.2512 13.8342C43.4546 15.4359 44.1653 17.4262 44.1653 19.5829C44.1653 21.7395 43.4546 23.7299 42.2512 25.3316C41.8362 25.8832 41.0516 25.9956 40.4999 25.5822C39.9483 25.1672 39.8359 24.3842 40.2493 23.8342C41.1393 22.6492 41.6653 21.1762 41.6653 19.5829C41.6653 17.9895 41.1393 16.5166 40.2493 15.3316C39.8359 14.7816 39.9483 13.9985 40.4999 13.5835Z" fill="#00E990"/>
</svg>
