<svg width="40" height="40" viewBox="0 0 40 40" fill="none" xmlns="http://www.w3.org/2000/svg">
<path fill-rule="evenodd" clip-rule="evenodd" d="M5.55339 2.08337C4.78005 2.08337 4.03951 2.39116 3.49284 2.93949C2.94451 3.48616 2.63672 4.22671 2.63672 5.00004V35C2.63672 35.7734 2.94451 36.5139 3.49284 37.0606C4.03951 37.6089 4.78005 37.9167 5.55339 37.9167H22.2201C22.9934 37.9167 23.7355 37.6089 24.2839 37.0606C24.8305 36.5139 25.1367 35.7734 25.1367 35V5.00004C25.1367 4.22671 24.8305 3.48616 24.2839 2.93949C23.7355 2.39116 22.9934 2.08337 22.2201 2.08337H5.55339ZM5.55339 4.58337H22.2201C22.3301 4.58337 22.4379 4.62548 22.5163 4.70382C22.5946 4.78215 22.6367 4.89004 22.6367 5.00004V35C22.6367 35.11 22.5946 35.2179 22.5163 35.2963C22.4379 35.3746 22.3301 35.4167 22.2201 35.4167H5.55339C5.44339 35.4167 5.33875 35.3746 5.26042 35.2963C5.18208 35.2179 5.13672 35.11 5.13672 35V5.00004C5.13672 4.89004 5.18208 4.78215 5.26042 4.70382C5.33875 4.62548 5.44339 4.58337 5.55339 4.58337ZM13.8867 7.08337C11.3567 7.08337 9.30339 9.13671 9.30339 11.6667C9.30339 14.1967 11.3567 16.25 13.8867 16.25C16.4167 16.25 18.4701 14.1967 18.4701 11.6667C18.4701 9.13671 16.4167 7.08337 13.8867 7.08337ZM13.8867 9.58337C15.0367 9.58337 15.9701 10.5167 15.9701 11.6667C15.9701 12.8167 15.0367 13.75 13.8867 13.75C12.7367 13.75 11.8034 12.8167 11.8034 11.6667C11.8034 10.5167 12.7367 9.58337 13.8867 9.58337ZM13.8867 18.75C9.97672 18.75 6.80339 21.9234 6.80339 25.8334C6.80339 29.7434 9.97672 32.9167 13.8867 32.9167C17.7967 32.9167 20.9701 29.7434 20.9701 25.8334C20.9701 21.9234 17.7967 18.75 13.8867 18.75ZM13.8867 21.25C16.4167 21.25 18.4701 23.3034 18.4701 25.8334C18.4701 28.3634 16.4167 30.4167 13.8867 30.4167C11.3567 30.4167 9.30339 28.3634 9.30339 25.8334C9.30339 23.3034 11.3567 21.25 13.8867 21.25ZM13.8867 24.1667C13.4447 24.1667 13.0208 24.3423 12.7082 24.6549C12.3956 24.9674 12.2201 25.3913 12.2201 25.8334C12.2201 26.2754 12.3956 26.6993 12.7082 27.0119C13.0208 27.3244 13.4447 27.5 13.8867 27.5C14.3287 27.5 14.7527 27.3244 15.0652 27.0119C15.3778 26.6993 15.5534 26.2754 15.5534 25.8334C15.5534 25.3913 15.3778 24.9674 15.0652 24.6549C14.7527 24.3423 14.3287 24.1667 13.8867 24.1667Z" fill="white"/>
<path d="M32.5813 10.6673C32.8572 10.4606 33.1922 10.3845 33.5091 10.4297C33.826 10.4749 34.126 10.6421 34.3327 10.918C36.2343 13.448 37.3633 16.5933 37.3633 20C37.3633 23.4067 36.2343 26.552 34.3327 29.082C33.9193 29.6337 33.133 29.746 32.5813 29.3327C32.0297 28.9177 31.919 28.1346 32.334 27.5846C33.9206 25.4713 34.8633 22.8433 34.8633 20C34.8633 17.1567 33.9206 14.5287 32.334 12.4154C31.919 11.8654 32.0297 11.0823 32.5813 10.6673Z" fill="#00E990"/>
<path d="M28.138 14.0006C28.4138 13.794 28.7491 13.7178 29.0657 13.763C29.3824 13.8082 29.6818 13.9755 29.8893 14.2513C31.0926 15.853 31.8034 17.8433 31.8034 20C31.8034 22.1567 31.0926 24.147 29.8893 25.7487C29.4743 26.3004 28.6897 26.4127 28.138 25.9993C27.5863 25.5843 27.474 24.8013 27.8873 24.2513C28.7773 23.0663 29.3034 21.5933 29.3034 20C29.3034 18.4067 28.7773 16.9337 27.8873 15.7487C27.474 15.1987 27.5863 14.4156 28.138 14.0006Z" fill="#00E990"/>
</svg>
