<svg width="40" height="43" viewBox="0 0 40 43" fill="none" xmlns="http://www.w3.org/2000/svg">
<g clip-path="url(#clip0_55_74)">
<path d="M4.73136 35.9614L4.80373 35.8167H4.64192H3.33333C2.69856 35.8167 2.18333 35.3014 2.18333 34.6667V28V8C2.18333 7.36523 2.69856 6.85 3.33333 6.85H8.33333C8.9681 6.85 9.48333 7.36523 9.48333 8V26.75V26.85H9.58333H14.987H15.0547L15.0798 26.7872L15.7471 25.1205L15.802 24.9833H15.6543H11.6667C11.0319 24.9833 10.5167 24.4681 10.5167 23.8333V13C10.5167 12.3652 11.0319 11.85 11.6667 11.85H28.3333C28.9681 11.85 29.4833 12.3652 29.4833 13V23.8333C29.4833 24.4681 28.9681 24.9833 28.3333 24.9833H24.3457H24.1979L24.2529 25.1205L24.9202 26.7872L24.9453 26.85H25.013H30.4167H30.5167V26.75V8C30.5167 7.36523 31.0319 6.85 31.6667 6.85H36.6667C37.3014 6.85 37.8167 7.36523 37.8167 8V28V34.6667C37.8167 35.3014 37.3014 35.8167 36.6667 35.8167H35.3581H35.1963L35.2686 35.9614L36.0303 37.4848C36.3141 38.0523 36.0839 38.7467 35.5153 39.0303L35.5152 39.0303C34.9477 39.3141 34.2533 39.084 33.9697 38.5153L33.9696 38.5152L32.648 35.8719L32.6204 35.8167H32.5586H20H7.4414H7.3796L7.35196 35.8719L6.03034 38.5152L6.0303 38.5153C5.74672 39.084 5.05225 39.3141 4.48482 39.0303L4.48472 39.0303C3.91605 38.7467 3.68593 38.0523 3.96965 37.4848L4.73136 35.9614ZM4.58333 9.15H4.48333V9.25V26.75V26.85H4.58333H7.08333H7.18333V26.75V9.25V9.15H7.08333H4.58333ZM32.9167 9.15H32.8167V9.25V26.75V26.85H32.9167H35.4167H35.5167V26.75V9.25V9.15H35.4167H32.9167ZM12.9167 14.15H12.8167V14.25V22.5833V22.6833H12.9167H27.0833H27.1833V22.5833V14.25V14.15H27.0833H12.9167ZM18.3463 24.9833H18.2787L18.2535 25.0462L17.5862 26.7128L17.5313 26.85H17.679H20H22.321H22.4687L22.4138 26.7128L21.7465 25.0462L21.7213 24.9833H21.6536H18.3463ZM4.58333 29.15H4.48333V29.25V33.4167V33.5167H4.58333H18.75H18.85V33.4167V29.25V29.15H18.75H15.8561H8.33333H4.58333ZM21.25 29.15H21.15V29.25V33.4167V33.5167H21.25H35.4167H35.5167V33.4167V29.25V29.15H35.4167H21.25Z" fill="white" stroke="#142026" stroke-width="0.2"/>
<path d="M15.5567 3.22452C15.1663 2.7055 15.2738 1.96653 15.7928 1.57615C17.0637 0.622399 18.6422 0.0577533 20.3523 0.0577532C22.0624 0.0577534 23.6409 0.622401 24.9118 1.57616C25.4309 1.96653 25.5383 2.7055 25.1479 3.22452C24.7598 3.74354 24.0197 3.84555 23.4996 3.45629C22.6235 2.79753 21.5334 2.40898 20.3523 2.41008C19.1712 2.40898 18.0812 2.79753 17.205 3.45629C16.6849 3.84555 15.9448 3.74354 15.5567 3.22452Z" fill="#00E990"/>
<path d="M17.1011 6.43677C16.7118 5.91665 16.8149 5.17767 17.3328 4.78841C18.1757 4.15627 19.22 3.78225 20.3523 3.78336C21.4846 3.78225 22.5312 4.15627 23.3718 4.78841C23.8908 5.17878 23.9961 5.91559 23.6057 6.43461C23.2165 6.95474 22.4764 7.06108 21.9574 6.67071C21.5104 6.33467 20.9567 6.13463 20.3545 6.13353C19.7523 6.13464 19.1953 6.33357 18.7473 6.67071C18.2282 7.05886 17.4903 6.95469 17.1011 6.43677Z" fill="#00E990"/>
</g>
<defs>
<clipPath id="clip0_55_74">
<rect width="40" height="43" fill="white"/>
</clipPath>
</defs>
</svg>
