<svg width="25" height="28" viewBox="0 0 25 28" fill="none" xmlns="http://www.w3.org/2000/svg">
<g clip-path="url(#clip0_93_19)">
<path d="M13.475 0H11.1199V12.7715H13.475V0Z" fill="white"/>
<path d="M15.4254 2.40036L15.1743 2.33325V4.77283L15.3129 4.81829C19.456 6.14091 22.2377 9.94639 22.2377 14.2866C22.2377 19.7675 17.7784 24.2267 12.2953 24.2267C6.81221 24.2267 2.35516 19.7697 2.35516 14.2887C2.35516 9.9464 5.13893 6.14091 9.27994 4.82046L9.41848 4.775V2.33542L9.16737 2.40252C3.77085 3.82254 0 8.71037 0 14.2887C0 21.0685 5.51558 26.5862 12.2975 26.5862C19.0794 26.5862 24.595 21.0706 24.595 14.2887C24.595 8.71037 20.8241 3.82254 15.4254 2.40252V2.40036Z" fill="white"/>
</g>
<defs>
<clipPath id="clip0_93_19">
<rect width="24.5928" height="28" fill="white"/>
</clipPath>
</defs>
</svg>
