<svg width="48" height="48" viewBox="0 0 48 48" fill="none" xmlns="http://www.w3.org/2000/svg">
<path d="M17.7793 6.90247C12.1213 6.84753 13 13.0001 13 13.0001C20 14.0001 19 7.00012 19 7.00012C18.5625 6.93762 18.1565 6.90613 17.7793 6.90247ZM31.2207 6.90247C30.8435 6.90613 30.4375 6.93762 30 7.00012C30 7.00012 29 14.0001 36 13.0001C36 13.0001 36.8787 6.84753 31.2207 6.90247ZM6.9375 11.047C6.9375 11.047 2.62158 17.6572 10.3926 20.4142C16.7776 23.4522 18.5879 16.3536 18.5879 16.3536C14.4891 14.0002 12.3698 15.9132 11.3223 17.8322C11.7402 15.6517 11.3676 12.6412 6.9375 11.047ZM41.623 11.047C37.1929 12.6412 36.8204 15.6517 37.2383 17.8322C36.1909 15.9132 34.0721 14.0002 29.9727 16.3536C29.9727 16.3536 31.783 23.4522 38.168 20.4142C45.939 17.6572 41.623 11.047 41.623 11.047ZM17 23.0001C11.6818 23.3446 11.0794 26.3775 11.2402 28.3361C10.6417 26.1676 8.86792 22.7884 3.5 24.1056C3.5 24.1056 3.56055 32.0001 11.5605 30.0001C18.5605 29.0001 17 23.0001 17 23.0001ZM32 23.0001C32 23.0001 30 29.0001 37 30.0001C45 32.0001 45.0605 24.1056 45.0605 24.1056C40.2013 22.9132 38.2715 25.5863 37.5039 27.713C37.5898 25.7904 36.7609 23.3085 32 23.0001ZM19.4316 29.2013C14.8588 29.3819 13.7608 31.9432 13.6426 34.0704C13.5345 34.0797 13.4278 34.1007 13.3242 34.1329C11.7652 32.7259 9.24667 31.7511 5.88867 34.6876C5.88867 34.6876 9.02356 39.8098 13.6367 37.5372C14.9001 38.6336 16.5007 39.5076 18.2168 40.1603C15.9752 41.2064 14.5645 42.3282 14.5645 42.3282C14.404 42.4488 14.2694 42.6004 14.1686 42.7739C14.0679 42.9474 14.0029 43.1394 13.9776 43.3385C13.9524 43.5376 13.9673 43.7397 14.0215 43.9329C14.0758 44.1261 14.1683 44.3065 14.2935 44.4633C14.4187 44.6202 14.5741 44.7503 14.7505 44.846C14.9269 44.9417 15.1207 45.001 15.3204 45.0205C15.5201 45.0399 15.7217 45.0191 15.9133 44.9593C16.1048 44.8994 16.2824 44.8017 16.4355 44.672C16.4355 44.672 19.9068 41.9701 24.2812 41.4806C28.6548 41.9707 32.125 44.672 32.125 44.672C32.2787 44.7964 32.4556 44.8892 32.6453 44.945C32.835 45.0008 33.0339 45.0185 33.2305 44.9972C33.4271 44.9758 33.6176 44.9158 33.7909 44.8206C33.9643 44.7254 34.1171 44.5968 34.2405 44.4423C34.364 44.2878 34.4557 44.1105 34.5103 43.9204C34.565 43.7303 34.5815 43.5313 34.559 43.3349C34.5365 43.1384 34.4753 42.9483 34.379 42.7755C34.2828 42.6028 34.1533 42.4508 33.998 42.3282C33.998 42.3282 32.5873 41.2064 30.3457 40.1603C32.0618 39.5076 33.6624 38.6336 34.9258 37.5372C39.5386 39.809 42.6738 34.6876 42.6738 34.6876C39.3153 31.7511 36.7952 32.7259 35.2363 34.1329C35.1328 34.1007 35.026 34.0797 34.918 34.0704C34.7995 31.9432 33.7031 29.3819 29.1309 29.2013C29.1309 29.2013 28.0864 34.1105 31.6504 36.1193C29.6443 37.2935 26.8309 38.2675 24.5176 38.4396C24.4374 38.4455 24.3608 38.4578 24.2812 38.465C24.2017 38.4578 24.1251 38.4455 24.0449 38.4396C21.7316 38.2675 18.9168 37.2935 16.9102 36.1193C20.4742 34.1105 19.4316 29.2013 19.4316 29.2013Z" fill="#00E990"/>
</svg>
