<svg width="14" height="14" viewBox="0 0 14 14" fill="none" xmlns="http://www.w3.org/2000/svg">
<path d="M7.00008 1.16675C4.266 1.16675 2.04175 3.391 2.04175 6.12508C2.04175 7.30225 2.46437 8.44471 3.23554 9.34741C3.32362 9.44746 5.40175 11.8088 6.09591 12.4706C6.34937 12.7124 6.67458 12.8334 7.00008 12.8334C7.32558 12.8334 7.65079 12.7124 7.90454 12.4706C8.71158 11.7009 10.6824 9.44162 10.7687 9.34246C11.5358 8.44471 11.9584 7.30225 11.9584 6.12508C11.9584 3.391 9.73417 1.16675 7.00008 1.16675ZM7.00008 7.58342C6.19479 7.58342 5.54175 6.93037 5.54175 6.12508C5.54175 5.31979 6.19479 4.66675 7.00008 4.66675C7.80537 4.66675 8.45842 5.31979 8.45842 6.12508C8.45842 6.93037 7.80537 7.58342 7.00008 7.58342Z" fill="#00E990"/>
</svg>
