<svg width="215" height="72" viewBox="0 0 215 72" fill="none" xmlns="http://www.w3.org/2000/svg">
<g clip-path="url(#clip0_82_717)">
<path d="M66.7035 6.63232H60.7324V48.8505H66.7035V6.63232Z" fill="white"/>
<path d="M98.2085 11.4679C102.804 11.4679 106.744 13.0174 109.964 16.4238L113.844 12.6635C110.024 8.36884 104.413 6.15808 97.968 6.15808C85.2578 6.15808 75.827 15.1681 75.827 27.5243C75.827 39.8805 85.2578 48.8905 97.9079 48.8905C104.413 48.8905 110.024 46.6264 113.844 42.3251L109.964 38.5648C106.738 41.9644 102.804 43.5807 98.2085 43.5807C88.7777 43.5807 81.7981 36.7748 81.7981 27.5243C81.7981 18.2738 88.7777 11.4679 98.2085 11.4679Z" fill="white"/>
<path d="M208.533 7.03303V39.8939L181.109 8.58257C179.579 6.83934 177.188 6.24491 175.017 7.05307C172.833 7.86791 171.424 9.90502 171.424 12.236V48.9373H177.348V14.1262C177.348 13.8189 177.729 13.672 177.936 13.8991L207.591 47.695C208.352 48.5633 209.421 49.0375 210.523 49.0375C210.944 49.0375 211.371 48.9707 211.785 48.8304C213.415 48.2828 214.457 46.6798 214.457 44.9633V7.03303H208.533Z" fill="white"/>
<path d="M41.8108 7.05309C39.6267 6.23825 37.2289 6.84604 35.7061 8.59595L0 48.944H7.87458L39.4798 13.2713V48.944H45.4041V12.236C45.4041 9.90504 43.9948 7.87461 41.8108 7.05309Z" fill="white"/>
<path d="M142.197 1.35583H138.623V23.951H142.197V1.35583Z" fill="#00E990"/>
<path d="M143.546 25.3069H137.261V0H143.546V25.3069ZM139.973 22.5952H140.834V2.71169H139.973V22.5952Z" fill="#00E990"/>
<path d="M148.702 7.60073V13.6119C153.464 16.3235 156.517 21.3796 156.517 27.5176C156.517 36.7681 149.597 43.574 140.347 43.574C131.096 43.574 124.056 36.7681 124.056 27.5176C124.056 21.2861 127.202 16.1699 132.125 13.4916V7.53394C123.689 10.5195 118.092 18.0935 118.092 27.5176C118.092 39.7536 127.523 48.8838 140.353 48.8838C153.184 48.8838 162.494 39.8137 162.494 27.5176C162.494 18.1202 156.984 10.613 148.709 7.59405L148.702 7.60073Z" fill="#00E990"/>
<path d="M28.1922 70.3236L27.4576 68.6672H23.931L23.1963 70.3236H22.0809L25.0397 63.9518H26.3488L29.3143 70.3236H28.1922ZM24.265 67.9258H27.1303L25.7945 64.9136L25.7076 64.6731H25.6876L25.6008 64.9136L24.265 67.9258Z" fill="white"/>
<path d="M31.4449 67.5985V63.9518H32.4668V67.5852C32.4668 68.9677 33.2015 69.649 34.6175 69.649C36.0334 69.649 36.7681 68.9611 36.7681 67.5852V63.9518H37.79V67.6052C37.79 69.482 36.8216 70.4505 34.6108 70.4505C32.4 70.4505 31.4449 69.4887 31.4449 67.5985Z" fill="white"/>
<path d="M42.8127 70.3236V64.7599H40.1544V63.9518H46.4928V64.7599H43.8346V70.3236H42.8127Z" fill="white"/>
<path d="M48.2361 67.1511V67.111C48.2361 64.9737 49.6053 63.8383 51.8628 63.8383C54.1203 63.8383 55.4962 64.9804 55.4962 67.111V67.1511C55.4962 69.3017 54.127 70.4505 51.8695 70.4505C49.612 70.4505 48.2361 69.3017 48.2361 67.1511ZM54.4676 67.1711V67.1043C54.4676 65.4947 53.4591 64.6331 51.8695 64.6331C50.2799 64.6331 49.2647 65.4813 49.2647 67.1043V67.1711C49.2647 68.8008 50.2732 69.6557 51.8695 69.6557C53.4658 69.6557 54.4676 68.7807 54.4676 67.1711Z" fill="white"/>
<path d="M58.4617 70.3236V63.9518H59.7307L62.3088 68.2197L62.3956 68.4267H62.4023L62.4958 68.2197L65.0739 63.9518H66.3429V70.3236H65.3544V65.174L65.2743 65.3677L62.8364 69.3351H61.9414L59.5036 65.3677L59.4168 65.174V65.4278L59.4234 70.3236H58.4349H58.4617Z" fill="white"/>
<path d="M75.1124 70.3236L74.3777 68.6672H70.8512L70.1165 70.3236H69.0011L71.9599 63.9518H73.269L76.2345 70.3236H75.1124ZM71.1851 67.9258H74.0505L72.7146 64.9136L72.6278 64.6731H72.6078L72.521 64.9136L71.1851 67.9258Z" fill="white"/>
<path d="M84.2094 67.8857H85.2045C85.091 69.3284 83.842 70.4037 81.845 70.4571L81.7582 70.7043C82.0387 70.6375 82.6331 70.7577 82.6331 71.3054C82.6331 71.7262 82.2724 72 81.698 72C81.1236 72 80.7229 71.8197 80.7095 71.2186H81.2439C81.2439 71.5124 81.4175 71.5926 81.6914 71.5926C81.9051 71.5926 82.052 71.4924 82.052 71.2653C82.052 71.0249 81.8383 70.8779 81.5043 70.9714L81.3173 70.8445L81.4643 70.4438C79.4338 70.357 78.1715 69.2148 78.1715 67.1577V67.1176C78.1715 64.9803 79.5407 63.8315 81.7181 63.8315C83.7685 63.8315 85.0643 64.9403 85.1912 66.3495V66.3696H84.1893C84.0557 65.3811 83.1073 64.6263 81.7314 64.6263C80.2086 64.6263 79.2001 65.4746 79.2001 67.1043V67.1711C79.2001 68.7941 80.2019 69.649 81.7314 69.649C83.0806 69.649 84.1092 68.9944 84.216 67.8924V67.8724L84.2094 67.8857Z" fill="white"/>
<path d="M93.2394 70.3235L92.5047 68.6671H88.9781L88.2434 70.3235H87.1281L90.0869 63.9517H91.396L94.3614 70.3235H93.2394ZM89.6461 63.3373L89.1384 63.197C89.2921 62.6159 89.5592 62.3287 90.0201 62.3287C90.5945 62.3287 90.9618 62.8029 91.3225 62.8029C91.5563 62.8029 91.6832 62.676 91.7967 62.4156L92.2909 62.5558C92.144 63.1369 91.8702 63.4308 91.4093 63.4308C90.8416 63.4308 90.4743 62.9499 90.1069 62.9499C89.8865 62.9499 89.7529 63.0768 89.6461 63.3373ZM89.3121 67.9258H92.1774L90.8416 64.9135L90.7548 64.6731H90.7347L90.6479 64.9135L89.3121 67.9258Z" fill="white"/>
<path d="M96.2917 67.1511V67.111C96.2917 64.9737 97.661 63.8383 99.9185 63.8383C102.176 63.8383 103.552 64.9804 103.552 67.111V67.1511C103.552 69.3017 102.183 70.4505 99.9251 70.4505C97.6676 70.4505 96.2917 69.3017 96.2917 67.1511ZM102.523 67.1711V67.1043C102.523 65.4947 101.515 64.6331 99.9251 64.6331C98.3355 64.6331 97.3203 65.4813 97.3203 67.1043V67.1711C97.3203 68.8008 98.3289 69.6557 99.9251 69.6557C101.521 69.6557 102.523 68.7807 102.523 67.1711Z" fill="white"/>
<path d="M111.353 70.3236V63.9518H112.375V70.3236H111.353Z" fill="white"/>
<path d="M115.828 70.3236V63.9518H116.937L121.298 68.9277L121.398 69.0813V63.9518H122.373V70.3236H121.265L116.903 65.3611L116.81 65.2074V70.3236H115.821H115.828Z" fill="white"/>
<path d="M127.643 70.3236V64.7599H124.985V63.9518H131.323V64.7599H128.665V70.3236H127.643Z" fill="white"/>
<path d="M133.928 70.3236V63.9518H139.365V64.7599H134.95V66.6835H139.011V67.4316H134.95V69.5288H139.418V70.3236H133.928Z" fill="white"/>
<path d="M142.284 70.3236V63.9518H143.305V69.5221H147.346V70.3169H142.29L142.284 70.3236Z" fill="white"/>
<path d="M150.151 70.3236V63.9518H151.173V70.3236H150.151Z" fill="white"/>
<path d="M154.132 67.1978V67.131C154.132 64.9871 155.515 63.8383 157.739 63.8383C159.682 63.8383 161.058 64.9002 161.152 66.2227V66.2494H160.143V66.2227C160.03 65.3477 159.055 64.6397 157.745 64.6397C156.169 64.6397 155.167 65.488 155.167 67.111V67.2245C155.167 68.8208 156.176 69.6691 157.745 69.6691C158.974 69.6691 160.063 69.0546 160.183 67.8323V67.8056H157.438V67.0776H161.158V67.3848C161.158 69.3151 159.809 70.4639 157.745 70.4639C155.528 70.4639 154.139 69.3351 154.139 67.2045L154.132 67.1978Z" fill="white"/>
<path d="M164.137 70.3236V63.9518H169.574V64.7599H165.159V66.6835H169.22V67.4316H165.159V69.5288H169.627V70.3236H164.137Z" fill="white"/>
<path d="M172.499 70.3236V63.9518H173.608L177.97 68.9277L178.07 69.0813V63.9518H179.045V70.3236H177.936L173.575 65.3611L173.481 65.2074V70.3236H172.493H172.499Z" fill="white"/>
<path d="M184.315 70.3236V64.7599H181.656V63.9518H187.995V64.7599H185.337V70.3236H184.315Z" fill="white"/>
<path d="M190.6 70.3236V63.9518H196.036V64.7599H191.622V66.6835H195.682V67.4316H191.622V69.5288H196.09V70.3236H190.6Z" fill="white"/>
</g>
<defs>
<clipPath id="clip0_82_717">
<rect width="214.45" height="72" fill="white"/>
</clipPath>
</defs>
</svg>
