<svg width="272" height="197" viewBox="0 0 272 197" fill="none" xmlns="http://www.w3.org/2000/svg">
<g clip-path="url(#clip0_82_628)">
<path d="M84.25 113.24H76.7V166.34H84.25V113.24Z" fill="white"/>
<path d="M124.1 119.36C129.91 119.36 134.89 121.32 138.97 125.62L143.88 120.87C139.05 115.44 131.95 112.64 123.8 112.64C107.72 112.64 95.8 124.04 95.8 139.66C95.8 155.28 107.73 166.68 123.73 166.68C131.96 166.68 139.05 163.81 143.88 158.38L138.97 153.62C134.89 157.92 129.91 159.96 124.1 159.96C112.17 159.96 103.34 151.36 103.34 139.66C103.34 127.96 112.17 119.36 124.1 119.36Z" fill="white"/>
<path d="M177.39 112.64C161.16 112.64 149.24 124.19 149.24 139.66C149.24 155.13 161.17 166.68 177.39 166.68C193.61 166.68 205.39 155.21 205.39 139.66C205.39 124.11 193.46 112.64 177.39 112.64ZM177.39 159.96C165.54 159.96 156.78 151.36 156.78 139.66C156.78 127.96 165.54 119.36 177.39 119.36C189.24 119.36 197.84 127.96 197.84 139.66C197.84 151.36 189.08 159.96 177.39 159.96Z" fill="white"/>
<path d="M263.63 113.75V154.84L228.95 115.71C227.01 113.51 223.99 112.75 221.24 113.78C218.48 114.81 216.7 117.39 216.7 120.33V166.34H224.19V122.72C224.19 122.33 224.67 122.15 224.93 122.44L262.44 164.71C263.41 165.81 264.76 166.4 266.15 166.4C266.68 166.4 267.22 166.31 267.75 166.14C269.81 165.45 271.13 163.42 271.13 161.25V113.75H263.64H263.63Z" fill="white"/>
<path d="M52.77 113.78C50.01 112.75 46.98 113.52 45.05 115.73L0 166.34H9.96L49.82 121.64V166.34H57.31V120.33C57.31 117.38 55.53 114.81 52.77 113.78Z" fill="white"/>
<path d="M148.88 0H141.25V41.38H148.88V0Z" fill="#00E990"/>
<path d="M155.2 12.3699L154.39 12.1599V20.0599L154.84 20.1999C168.26 24.4799 177.28 36.8099 177.28 50.8799C177.28 68.6399 162.83 83.0899 145.07 83.0899C127.31 83.0899 112.86 68.6399 112.86 50.8799C112.86 36.8099 121.88 24.4799 135.3 20.1999L135.75 20.0599V12.1599L134.94 12.3699C117.45 16.9799 105.23 32.8099 105.23 50.8799C105.23 72.8499 123.1 90.7199 145.07 90.7199C167.04 90.7199 184.91 72.8499 184.91 50.8799C184.91 32.8099 172.69 16.9699 155.2 12.3699Z" fill="#00E990"/>
<path d="M34.27 194.5L33.33 192.38H28.82L27.8799 194.5H26.45L30.2299 186.35H31.91L35.7099 194.5H34.27ZM29.25 191.43H32.91L31.2 187.58L31.09 187.27H31.07L30.9599 187.58L29.25 191.43Z" fill="white"/>
<path d="M38.4299 191.02V186.36H39.7399V191.01C39.7399 192.78 40.6799 193.65 42.4899 193.65C44.2999 193.65 45.2399 192.77 45.2399 191.01V186.36H46.5499V191.03C46.5499 193.43 45.3099 194.67 42.4799 194.67C39.6499 194.67 38.4299 193.44 38.4299 191.02Z" fill="white"/>
<path d="M52.9699 194.5V187.38H49.5699V186.35H57.6799V187.38H54.2799V194.5H52.9699Z" fill="white"/>
<path d="M59.9199 190.45V190.39C59.9199 187.66 61.6699 186.2 64.5599 186.2C67.4499 186.2 69.2099 187.66 69.2099 190.39V190.45C69.2099 193.2 67.4599 194.67 64.5699 194.67C61.6799 194.67 59.9199 193.2 59.9199 190.45ZM67.8899 190.47V190.38C67.8899 188.32 66.5999 187.22 64.5699 187.22C62.5399 187.22 61.2399 188.31 61.2399 190.38V190.47C61.2399 192.55 62.5299 193.65 64.5699 193.65C66.6099 193.65 67.8899 192.53 67.8899 190.47Z" fill="white"/>
<path d="M73.01 194.5V186.35H74.63L77.93 191.81L78.04 192.07H78.05L78.17 191.81L81.47 186.35H83.09V194.5H81.83V187.91L81.73 188.16L78.62 193.24H77.48L74.36 188.16L74.25 187.91V188.24L74.26 194.5H73H73.01Z" fill="white"/>
<path d="M94.31 194.5L93.37 192.38H88.86L87.92 194.5H86.49L90.27 186.35H91.95L95.75 194.5H94.31ZM89.29 191.43H92.95L91.24 187.58L91.13 187.27H91.11L91 187.58L89.29 191.43Z" fill="white"/>
<path d="M105.95 191.38H107.22C107.08 193.22 105.48 194.6 102.92 194.67L102.81 194.99C103.17 194.9 103.93 195.06 103.93 195.76C103.93 196.3 103.47 196.65 102.73 196.65C101.99 196.65 101.48 196.42 101.47 195.65H102.15C102.15 196.02 102.37 196.13 102.72 196.13C102.99 196.13 103.18 196 103.18 195.71C103.18 195.4 102.91 195.22 102.48 195.34L102.24 195.18L102.43 194.66C99.83 194.55 98.22 193.09 98.22 190.46V190.4C98.22 187.67 99.97 186.2 102.76 186.2C105.38 186.2 107.04 187.61 107.2 189.42V189.44H105.92C105.74 188.18 104.54 187.21 102.77 187.21C100.82 187.21 99.53 188.3 99.53 190.38V190.47C99.53 192.54 100.81 193.64 102.77 193.64C104.49 193.64 105.81 192.81 105.95 191.39V191.37V191.38Z" fill="white"/>
<path d="M117.51 194.5L116.57 192.38H112.06L111.12 194.5H109.69L113.47 186.35H115.15L118.95 194.5H117.51ZM112.91 185.56L112.26 185.38C112.46 184.63 112.8 184.27 113.39 184.27C114.12 184.27 114.6 184.87 115.06 184.87C115.36 184.87 115.52 184.7 115.66 184.38L116.3 184.56C116.11 185.31 115.76 185.68 115.17 185.68C114.45 185.68 113.97 185.07 113.5 185.07C113.21 185.07 113.05 185.24 112.91 185.56ZM112.48 191.43H116.14L114.43 187.58L114.32 187.27H114.3L114.19 187.58L112.48 191.43Z" fill="white"/>
<path d="M121.41 190.45V190.39C121.41 187.66 123.16 186.2 126.05 186.2C128.94 186.2 130.7 187.66 130.7 190.39V190.45C130.7 193.2 128.95 194.67 126.06 194.67C123.17 194.67 121.41 193.2 121.41 190.45ZM129.38 190.47V190.38C129.38 188.32 128.09 187.22 126.06 187.22C124.03 187.22 122.73 188.31 122.73 190.38V190.47C122.73 192.55 124.02 193.65 126.06 193.65C128.1 193.65 129.38 192.53 129.38 190.47Z" fill="white"/>
<path d="M140.69 194.5V186.35H142V194.5H140.69Z" fill="white"/>
<path d="M146.42 194.5V186.35H147.83L153.41 192.71L153.54 192.91V186.35H154.79V194.5H153.38L147.8 188.15L147.68 187.95V194.5H146.42Z" fill="white"/>
<path d="M161.53 194.5V187.38H158.13V186.35H166.24V187.38H162.84V194.5H161.53Z" fill="white"/>
<path d="M169.57 194.5V186.35H176.52V187.38H170.87V189.84H176.07V190.79H170.87V193.48H176.58V194.5H169.56H169.57Z" fill="white"/>
<path d="M180.27 194.5V186.35H181.58V193.48H186.75V194.5H180.28H180.27Z" fill="white"/>
<path d="M190.33 194.5V186.35H191.64V194.5H190.33Z" fill="white"/>
<path d="M195.43 190.5V190.41C195.43 187.67 197.2 186.2 200.05 186.2C202.54 186.2 204.29 187.56 204.42 189.25V189.28H203.13V189.25C202.99 188.13 201.74 187.22 200.06 187.22C198.04 187.22 196.76 188.31 196.76 190.38V190.52C196.76 192.56 198.05 193.65 200.06 193.65C201.63 193.65 203.02 192.86 203.17 191.3V191.27H199.66V190.34H204.42V190.74C204.42 193.21 202.7 194.68 200.05 194.68C197.21 194.68 195.43 193.23 195.43 190.51V190.5Z" fill="white"/>
<path d="M208.24 194.5V186.35H215.19V187.38H209.54V189.84H214.74V190.79H209.54V193.48H215.25V194.5H208.23H208.24Z" fill="white"/>
<path d="M218.93 194.5V186.35H220.34L225.92 192.71L226.05 192.91V186.35H227.3V194.5H225.89L220.31 188.15L220.19 187.95V194.5H218.93Z" fill="white"/>
<path d="M234.05 194.5V187.38H230.65V186.35H238.76V187.38H235.36V194.5H234.05Z" fill="white"/>
<path d="M242.09 194.5V186.35H249.04V187.38H243.39V189.84H248.59V190.79H243.39V193.48H249.1V194.5H242.08H242.09Z" fill="white"/>
</g>
<defs>
<clipPath id="clip0_82_628">
<rect width="271.12" height="196.64" fill="white"/>
</clipPath>
</defs>
</svg>
