<svg width="40" height="40" viewBox="0 0 40 40" fill="none" xmlns="http://www.w3.org/2000/svg">
<path d="M5.33332 6.66663C3.87591 6.66663 2.66666 7.87588 2.66666 9.33329V30.6666C2.66666 32.124 3.87591 33.3333 5.33332 33.3333H34.6667C36.1241 33.3333 37.3333 32.124 37.3333 30.6666V9.33329C37.3333 7.87588 36.1241 6.66663 34.6667 6.66663H5.33332ZM5.33332 9.33329H34.6667V30.6666H5.33332V9.33329ZM14.6667 13.3333C14.313 13.3333 13.9739 13.4738 13.7238 13.7238C13.4738 13.9739 13.3333 14.313 13.3333 14.6666C13.3333 15.0202 13.4738 15.3594 13.7238 15.6094C13.9739 15.8595 14.313 16 14.6667 16C15.0203 16 15.3594 15.8595 15.6095 15.6094C15.8595 15.3594 16 15.0202 16 14.6666C16 14.313 15.8595 13.9739 15.6095 13.7238C15.3594 13.4738 15.0203 13.3333 14.6667 13.3333ZM25.3333 13.3333C24.9797 13.3333 24.6406 13.4738 24.3905 13.7238C24.1405 13.9739 24 14.313 24 14.6666C24 15.0202 24.1405 15.3594 24.3905 15.6094C24.6406 15.8595 24.9797 16 25.3333 16C25.6869 16 26.0261 15.8595 26.2761 15.6094C26.5262 15.3594 26.6667 15.0202 26.6667 14.6666C26.6667 14.313 26.5262 13.9739 26.2761 13.7238C26.0261 13.4738 25.6869 13.3333 25.3333 13.3333ZM12 18.6666C11.6464 18.6666 11.3072 18.8071 11.0572 19.0572C10.8071 19.3072 10.6667 19.6463 10.6667 20C10.6667 20.3536 10.8071 20.6927 11.0572 20.9428C11.3072 21.1928 11.6464 21.3333 12 21.3333C12.3536 21.3333 12.6927 21.1928 12.9428 20.9428C13.1928 20.6927 13.3333 20.3536 13.3333 20C13.3333 19.6463 13.1928 19.3072 12.9428 19.0572C12.6927 18.8071 12.3536 18.6666 12 18.6666ZM22.6667 18.6666C22.313 18.6666 21.9739 18.8071 21.7238 19.0572C21.4738 19.3072 21.3333 19.6463 21.3333 20C21.3333 20.3536 21.4738 20.6927 21.7238 20.9428C21.9739 21.1928 22.313 21.3333 22.6667 21.3333C23.0203 21.3333 23.3594 21.1928 23.6095 20.9428C23.8595 20.6927 24 20.3536 24 20C24 19.6463 23.8595 19.3072 23.6095 19.0572C23.3594 18.8071 23.0203 18.6666 22.6667 18.6666ZM14.6667 24C14.313 24 13.9739 24.1404 13.7238 24.3905C13.4738 24.6405 13.3333 24.9797 13.3333 25.3333C13.3333 25.6869 13.4738 26.0261 13.7238 26.2761C13.9739 26.5262 14.313 26.6666 14.6667 26.6666C15.0203 26.6666 15.3594 26.5262 15.6095 26.2761C15.8595 26.0261 16 25.6869 16 25.3333C16 24.9797 15.8595 24.6405 15.6095 24.3905C15.3594 24.1404 15.0203 24 14.6667 24ZM25.3333 24C24.9797 24 24.6406 24.1404 24.3905 24.3905C24.1405 24.6405 24 24.9797 24 25.3333C24 25.6869 24.1405 26.0261 24.3905 26.2761C24.6406 26.5262 24.9797 26.6666 25.3333 26.6666C25.6869 26.6666 26.0261 26.5262 26.2761 26.2761C26.5262 26.0261 26.6667 25.6869 26.6667 25.3333C26.6667 24.9797 26.5262 24.6405 26.2761 24.3905C26.0261 24.1404 25.6869 24 25.3333 24Z" fill="white"/>
<path d="M8.39052 13.7238C8.64057 13.4737 8.97971 13.3333 9.33333 13.3333C9.68696 13.3333 10.0261 13.4737 10.2761 13.7238C10.5262 13.9738 10.6667 14.313 10.6667 14.6666C10.6667 15.0202 10.5262 15.3593 10.2761 15.6094C10.0261 15.8594 9.68696 15.9999 9.33333 15.9999C8.97971 15.9999 8.64057 15.8594 8.39052 15.6094C8.14048 15.3593 8 15.0202 8 14.6666C8 14.313 8.14048 13.9738 8.39052 13.7238Z" fill="#00E990"/>
<path d="M19.0572 13.7238C19.3072 13.4737 19.6464 13.3333 20 13.3333C20.3536 13.3333 20.6928 13.4737 20.9428 13.7238C21.1929 13.9738 21.3333 14.313 21.3333 14.6666C21.3333 15.0202 21.1929 15.3593 20.9428 15.6094C20.6928 15.8594 20.3536 15.9999 20 15.9999C19.6464 15.9999 19.3072 15.8594 19.0572 15.6094C18.8071 15.3593 18.6667 15.0202 18.6667 14.6666C18.6667 14.313 18.8071 13.9738 19.0572 13.7238Z" fill="#00E990"/>
<path d="M29.7239 13.7238C29.9739 13.4737 30.313 13.3333 30.6667 13.3333C31.0203 13.3333 31.3594 13.4737 31.6095 13.7238C31.8595 13.9738 32 14.313 32 14.6666C32 15.0202 31.8595 15.3593 31.6095 15.6094C31.3594 15.8594 31.0203 15.9999 30.6667 15.9999C30.313 15.9999 29.9739 15.8594 29.7239 15.6094C29.4738 15.3593 29.3333 15.0202 29.3333 14.6666C29.3333 14.313 29.4738 13.9738 29.7239 13.7238Z" fill="#00E990"/>
<path d="M16.3905 19.0571C16.6406 18.8071 16.9797 18.6666 17.3333 18.6666C17.687 18.6666 18.0261 18.8071 18.2761 19.0571C18.5262 19.3072 18.6667 19.6463 18.6667 19.9999C18.6667 20.3535 18.5262 20.6927 18.2761 20.9427C18.0261 21.1928 17.687 21.3333 17.3333 21.3333C16.9797 21.3333 16.6406 21.1928 16.3905 20.9427C16.1405 20.6927 16 20.3535 16 19.9999C16 19.6463 16.1405 19.3072 16.3905 19.0571Z" fill="#00E990"/>
<path d="M27.0572 19.0571C27.3072 18.8071 27.6464 18.6666 28 18.6666C28.3536 18.6666 28.6928 18.8071 28.9428 19.0571C29.1929 19.3072 29.3333 19.6463 29.3333 19.9999C29.3333 20.3535 29.1929 20.6927 28.9428 20.9427C28.6928 21.1928 28.3536 21.3333 28 21.3333C27.6464 21.3333 27.3072 21.1928 27.0572 20.9427C26.8071 20.6927 26.6667 20.3535 26.6667 19.9999C26.6667 19.6463 26.8071 19.3072 27.0572 19.0571Z" fill="#00E990"/>
<path d="M8.39052 24.3904C8.64057 24.1404 8.97971 23.9999 9.33333 23.9999C9.68696 23.9999 10.0261 24.1404 10.2761 24.3904C10.5262 24.6405 10.6667 24.9796 10.6667 25.3333C10.6667 25.6869 10.5262 26.026 10.2761 26.2761C10.0261 26.5261 9.68696 26.6666 9.33333 26.6666C8.97971 26.6666 8.64057 26.5261 8.39052 26.2761C8.14048 26.026 8 25.6869 8 25.3333C8 24.9796 8.14048 24.6405 8.39052 24.3904Z" fill="#00E990"/>
<path d="M19.0572 24.3904C19.3072 24.1404 19.6464 23.9999 20 23.9999C20.3536 23.9999 20.6928 24.1404 20.9428 24.3904C21.1929 24.6405 21.3333 24.9796 21.3333 25.3333C21.3333 25.6869 21.1929 26.026 20.9428 26.2761C20.6928 26.5261 20.3536 26.6666 20 26.6666C19.6464 26.6666 19.3072 26.5261 19.0572 26.2761C18.8071 26.026 18.6667 25.6869 18.6667 25.3333C18.6667 24.9796 18.8071 24.6405 19.0572 24.3904Z" fill="#00E990"/>
<path d="M29.7239 24.3904C29.9739 24.1404 30.313 23.9999 30.6667 23.9999C31.0203 23.9999 31.3594 24.1404 31.6095 24.3904C31.8595 24.6405 32 24.9796 32 25.3333C32 25.6869 31.8595 26.026 31.6095 26.2761C31.3594 26.5261 31.0203 26.6666 30.6667 26.6666C30.313 26.6666 29.9739 26.5261 29.7239 26.2761C29.4738 26.026 29.3333 25.6869 29.3333 25.3333C29.3333 24.9796 29.4738 24.6405 29.7239 24.3904Z" fill="#00E990"/>
</svg>
