<svg width="48" height="48" viewBox="0 0 48 48" fill="none" xmlns="http://www.w3.org/2000/svg">
<path fill-rule="evenodd" clip-rule="evenodd" d="M20 2.5C19.172 2.5 18.5 3.172 18.5 4V12V16.0117C18.237 16.2118 17.9978 16.4462 17.8281 16.7422L3.55078 41.7617C3.11078 42.5357 3.11059 43.4858 3.55859 44.2578C4.00659 45.0278 4.83265 45.5 5.72265 45.5H36H42.2773C43.1673 45.5 43.9934 45.0278 44.4414 44.2578C44.8894 43.4858 44.8892 42.5357 44.4492 41.7617L36.1719 27.2578C35.7259 26.4778 34.898 25.9961 34 25.9961C33.102 25.9961 32.2741 26.4778 31.8281 27.2578C31.1233 28.4919 30.6078 29.3955 30 30.4609L22.1719 16.7422C22.0022 16.4462 21.763 16.2118 21.5 16.0117V13.5H32C32.52 13.5 33.0033 13.2311 33.2773 12.7891C33.5513 12.3471 33.5757 11.7921 33.3437 11.3281L31.6797 8L33.3437 4.67188C33.5757 4.20788 33.5513 3.65294 33.2773 3.21094C33.0033 2.76894 32.52 2.5 32 2.5H20ZM21.5 5.5H29.5703L28.6562 7.32812C28.4462 7.75012 28.4462 8.24988 28.6562 8.67188L29.5703 10.5H21.5V5.5ZM34 29.5078L41.4141 42.5H36.8672L31.7266 33.4844L34 29.5078Z" fill="#00E990"/>
</svg>
