<svg width="14" height="14" viewBox="0 0 14 14" fill="none" xmlns="http://www.w3.org/2000/svg">
<path d="M11.2117 8.89586L9.74169 8.72669C9.38586 8.68586 9.03586 8.80836 8.78502 9.05919L7.70586 10.1384C6.87811 9.71836 6.12736 9.17061 5.47869 8.52136C4.82944 7.87269 4.28169 7.12194 3.86169 6.29419L4.94086 5.21503C5.19169 4.96419 5.31419 4.61419 5.27336 4.25836L5.10419 2.78836C5.03419 2.19919 4.53836 1.75586 3.94336 1.75586H2.93419C2.27502 1.75586 1.72669 2.30419 1.76752 2.96336C1.92211 5.45361 2.99486 7.69303 4.65094 9.34911C6.30702 11.0052 8.54644 12.0779 11.0367 12.2325C11.6959 12.2734 12.2442 11.725 12.2442 11.0659V10.0567C12.2442 9.46169 11.8009 8.96586 11.2117 8.89586Z" fill="#00E990"/>
</svg>
