<svg width="40" height="40" viewBox="0 0 40 40" fill="none" xmlns="http://www.w3.org/2000/svg">
<path fill-rule="evenodd" clip-rule="evenodd" d="M15 12.0834C11.9948 12.0834 9.41047 13.7812 8.06967 16.25H5.83334C4.83834 16.25 3.88368 16.6437 3.18035 17.347C2.47702 18.0504 2.08334 19.005 2.08334 20V28.3334C2.08334 29.3284 2.47702 30.283 3.18035 30.9864C3.88368 31.6897 4.83834 32.0834 5.83334 32.0834H7.08334V33.3334C7.08334 34.0234 7.64334 34.5834 8.33334 34.5834C9.02334 34.5834 9.58334 34.0234 9.58334 33.3334V32.0834H30.4167V33.3334C30.4167 34.0234 30.9767 34.5834 31.6667 34.5834C32.3567 34.5834 32.9167 34.0234 32.9167 33.3334V32.0834H34.1667C35.1617 32.0834 36.1163 31.6897 36.8197 30.9864C37.523 30.283 37.9167 29.3284 37.9167 28.3334V20C37.9167 19.005 37.523 18.0504 36.8197 17.347C36.1163 16.6437 35.1617 16.25 34.1667 16.25H21.9303C20.5895 13.7812 18.0052 12.0834 15 12.0834ZM15 14.5834C17.99 14.5834 20.4167 17.01 20.4167 20C20.4167 22.99 17.99 25.4167 15 25.4167C12.01 25.4167 9.58334 22.99 9.58334 20C9.58334 17.01 12.01 14.5834 15 14.5834ZM5.83334 18.75H7.20704C7.14155 19.1597 7.08334 19.572 7.08334 20C7.08334 24.37 10.63 27.9167 15 27.9167C19.37 27.9167 22.9167 24.37 22.9167 20C22.9167 19.572 22.8585 19.1597 22.793 18.75H34.1667C34.4983 18.75 34.8155 18.8829 35.0488 19.1179C35.2838 19.3512 35.4167 19.6684 35.4167 20V28.3334C35.4167 28.665 35.2838 28.9822 35.0488 29.2155C34.8155 29.4505 34.4983 29.5834 34.1667 29.5834H31.6667H8.33334H5.83334C5.50168 29.5834 5.18452 29.4505 4.95118 29.2155C4.71618 28.9822 4.58334 28.665 4.58334 28.3334V20C4.58334 19.6684 4.71618 19.3512 4.95118 19.1179C5.18452 18.8829 5.50168 18.75 5.83334 18.75ZM28.3333 20.4167C27.6433 20.4167 27.0833 20.9767 27.0833 21.6667C27.0833 22.3567 27.6433 22.9167 28.3333 22.9167H31.6667C32.3567 22.9167 32.9167 22.3567 32.9167 21.6667C32.9167 20.9767 32.3567 20.4167 31.6667 20.4167H28.3333Z" fill="white"/>
<path d="M11.25 20C11.25 17.93 12.93 16.25 15 16.25C17.07 16.25 18.75 17.93 18.75 20C18.75 22.07 17.07 23.75 15 23.75C12.93 23.75 11.25 22.07 11.25 20Z" fill="#00E990"/>
<path d="M13.75 6.66663C13.75 5.97663 14.31 5.41663 15 5.41663C15.69 5.41663 16.25 5.97663 16.25 6.66663V9.16663C16.25 9.85663 15.69 10.4166 15 10.4166C14.31 10.4166 13.75 9.85663 13.75 9.16663V6.66663Z" fill="#00E990"/>
<path d="M5.09114 8.42444C5.3353 8.18111 5.65655 8.05985 5.97655 8.05985C6.29655 8.05985 6.61455 8.18111 6.85871 8.42444L9.21548 10.7845C9.70382 11.2711 9.70382 12.0621 9.21548 12.5488C8.72882 13.0371 7.93783 13.0371 7.45116 12.5488L5.09114 10.192C4.60447 9.70368 4.60447 8.91277 5.09114 8.42444Z" fill="#00E990"/>
<path d="M23.1413 8.42444C23.3854 8.18111 23.7034 8.05985 24.0234 8.05985C24.3434 8.05985 24.6647 8.18111 24.9088 8.42444C25.3955 8.91277 25.3955 9.70368 24.9088 10.192L22.5488 12.5488C22.0622 13.0371 21.2712 13.0371 20.7845 12.5488C20.2962 12.0621 20.2962 11.2711 20.7845 10.7845L23.1413 8.42444Z" fill="#00E990"/>
</svg>
