<svg width="24" height="24" viewBox="0 0 24 24" fill="none" xmlns="http://www.w3.org/2000/svg">
<path fill-rule="evenodd" clip-rule="evenodd" d="M12 1C11.691 1 11.3818 1.07279 11.1009 1.2152L4.00994 4.81875C3.38813 5.13474 3 5.7511 3 6.42259V12.7831C3 15.8235 4.59544 18.6646 7.25071 20.3516L10.9411 22.6944C11.5825 23.1019 12.4175 23.1019 13.0589 22.6944L16.7493 20.3516C19.4046 18.6646 21 15.8235 21 12.7831V6.42259C21 5.7511 20.6119 5.13474 19.9901 4.81875L12.8991 1.2152C12.6182 1.07279 12.309 1 12 1ZM12 2.5612C12.0442 2.5612 12.0875 2.57138 12.1278 2.59165L19.2188 6.19521C19.3071 6.2399 19.3636 6.32696 19.3636 6.42259V12.7831C19.3636 15.3027 18.042 17.6562 15.8416 19.0543L12.1513 21.3971C12.0596 21.4553 11.9404 21.4553 11.8487 21.3971L8.15838 19.0543C5.95802 17.6562 4.63636 15.3027 4.63636 12.7831V6.42259C4.63636 6.32696 4.69289 6.2399 4.78125 6.19521L11.8722 2.59165C11.9125 2.57138 11.9558 2.5612 12 2.5612Z" fill="white"/>
<path d="M8.32374 9.16529C9.34894 8.43344 10.6222 8 12 8C13.3778 8 14.6511 8.43344 15.6763 9.16529C16.0343 9.42232 16.1063 9.90827 15.8373 10.2499C15.5672 10.5916 15.0564 10.6592 14.6973 10.4032C13.9455 9.86537 13.0122 9.54835 12 9.54835C10.9878 9.54835 10.0545 9.86537 9.30267 10.4032C8.94357 10.6592 8.43284 10.5916 8.16271 10.2499C7.89366 9.90827 7.96574 9.42232 8.32374 9.16529Z" fill="#00E990"/>
<path d="M9.59931 11.6914C10.2687 11.2135 11.0985 10.9294 11.9979 10.9294C12.8983 10.9294 13.7303 11.2135 14.3986 11.6914C14.7577 11.9474 14.8308 12.4344 14.5617 12.7761C14.2916 13.1178 13.7798 13.1863 13.4218 12.9293C13.0247 12.6465 12.5316 12.4777 11.9979 12.4777C11.4652 12.4777 10.9732 12.6465 10.5761 12.9293C10.217 13.1863 9.70841 13.1178 9.43827 12.7761C9.16923 12.4344 9.24022 11.9474 9.59931 11.6914Z" fill="#00E990"/>
<path d="M11.5051 13.6603C11.6624 13.6007 11.8307 13.5715 12 13.5745C12.1693 13.5715 12.3376 13.6007 12.4949 13.6603C12.6522 13.72 12.7955 13.8088 12.9164 13.9217C13.0372 14.0346 13.1332 14.1693 13.1987 14.3179C13.2642 14.4665 13.298 14.626 13.298 14.7871C13.298 14.9483 13.2642 15.1078 13.1987 15.2564C13.1332 15.405 13.0372 15.5396 12.9164 15.6525C12.7955 15.7654 12.6522 15.8543 12.4949 15.9139C12.3376 15.9735 12.1693 16.0027 12 15.9998C11.8307 16.0027 11.6624 15.9735 11.5051 15.9139C11.3478 15.8543 11.2045 15.7654 11.0836 15.6525C10.9628 15.5396 10.8668 15.405 10.8013 15.2564C10.7358 15.1078 10.702 14.9483 10.702 14.7871C10.702 14.626 10.7358 14.4665 10.8013 14.3179C10.8668 14.1693 10.9628 14.0346 11.0836 13.9217C11.2045 13.8088 11.3478 13.72 11.5051 13.6603Z" fill="#00E990"/>
</svg>
