<svg width="24" height="24" viewBox="0 0 24 24" fill="none" xmlns="http://www.w3.org/2000/svg">
<path fill-rule="evenodd" clip-rule="evenodd" d="M17 1.75C16.31 1.75 15.75 2.31 15.75 3V4.20898C14.8166 3.55553 14.2211 3.13897 13.5762 2.6875C12.6292 2.0255 11.3708 2.0255 10.4238 2.6875L1.57031 8.88672C1.23131 9.12372 1.14872 9.59069 1.38672 9.92969C1.62372 10.2687 2.09069 10.3513 2.42969 10.1133L11.2832 3.91797C11.7142 3.61697 12.2858 3.61697 12.7168 3.91797L19.252 8.49023C19.2519 8.4937 19.25 8.49653 19.25 8.5V18.5C19.25 19.19 18.69 19.75 18 19.75H14C13.586 19.75 13.25 20.086 13.25 20.5C13.25 20.914 13.586 21.25 14 21.25H18C19.519 21.25 20.75 20.019 20.75 18.5V9.53906L21.5703 10.1133C21.9093 10.3513 22.3763 10.2687 22.6133 9.92969C22.8513 9.59069 22.7687 9.12372 22.4297 8.88672C22.4297 8.88672 21.131 7.97771 20.75 7.71094V3C20.75 2.31 20.19 1.75 19.5 1.75H17ZM17.25 3.25H19.25V6.66016C18.526 6.15329 18.136 5.88006 17.25 5.25977V3.25Z" fill="white"/>
<path d="M2.74999 12C2.74999 11.586 3.08599 11.25 3.49999 11.25C8.32899 11.25 12.25 15.171 12.25 20C12.25 20.414 11.914 20.75 11.5 20.75C11.086 20.75 10.75 20.414 10.75 20C10.75 15.999 7.50099 12.75 3.49999 12.75C3.08599 12.75 2.74999 12.414 2.74999 12Z" fill="#00E990"/>
<path d="M2.24999 15.8848C2.24999 15.4708 2.58599 15.1348 2.99999 15.1348C5.96099 15.1348 8.36522 17.539 8.36522 20.5C8.36522 20.914 8.02922 21.25 7.61522 21.25C7.20122 21.25 6.86522 20.914 6.86522 20.5C6.86522 18.367 5.13299 16.6348 2.99999 16.6348C2.58599 16.6348 2.24999 16.2988 2.24999 15.8848Z" fill="#00E990"/>
<path d="M2.3661 19.3661C2.60052 19.1317 2.91847 19 3.24999 19C3.58151 19 3.89945 19.1317 4.13387 19.3661C4.36829 19.6005 4.49999 19.9185 4.49999 20.25C4.49999 20.5815 4.36829 20.8995 4.13387 21.1339C3.89945 21.3683 3.58151 21.5 3.24999 21.5C2.91847 21.5 2.60052 21.3683 2.3661 21.1339C2.13168 20.8995 1.99999 20.5815 1.99999 20.25C1.99999 19.9185 2.13168 19.6005 2.3661 19.3661Z" fill="#00E990"/>
</svg>
