<svg width="40" height="40" viewBox="0 0 40 40" fill="none" xmlns="http://www.w3.org/2000/svg">
<path fill-rule="evenodd" clip-rule="evenodd" d="M28.3333 2.91663C27.1833 2.91663 26.25 3.84996 26.25 4.99996V7.01493C24.6944 5.92585 23.7018 5.23158 22.627 4.47913C21.0486 3.37579 18.9514 3.37579 17.373 4.47913L2.61719 14.8112C2.05219 15.2062 1.91453 15.9844 2.3112 16.5494C2.7062 17.1144 3.48448 17.2521 4.04948 16.8554L18.8053 6.52991C19.5237 6.02824 20.4763 6.02824 21.1947 6.52991L32.0866 14.1504C32.0865 14.1561 32.0833 14.1608 32.0833 14.1666V30.8333C32.0833 31.9833 31.15 32.9166 30 32.9166H23.3333C22.6433 32.9166 22.0833 33.4766 22.0833 34.1666C22.0833 34.8566 22.6433 35.4166 23.3333 35.4166H30C32.5317 35.4166 34.5833 33.365 34.5833 30.8333V15.8984L35.9505 16.8554C36.5155 17.2521 37.2938 17.1144 37.6888 16.5494C38.0855 15.9844 37.9478 15.2062 37.3828 14.8112C37.3828 14.8112 35.2184 13.2961 34.5833 12.8515V4.99996C34.5833 3.84996 33.65 2.91663 32.5 2.91663H28.3333ZM28.75 5.41663H32.0833V11.1002C30.8767 10.2554 30.2267 9.80006 28.75 8.76624V5.41663Z" fill="white"/>
<path d="M4.58331 20C4.58331 19.31 5.14331 18.75 5.83331 18.75C13.8816 18.75 20.4166 25.285 20.4166 33.3333C20.4166 34.0233 19.8566 34.5833 19.1666 34.5833C18.4766 34.5833 17.9166 34.0233 17.9166 33.3333C17.9166 26.665 12.5016 21.25 5.83331 21.25C5.14331 21.25 4.58331 20.69 4.58331 20Z" fill="#00E990"/>
<path d="M3.74998 26.4746C3.74998 25.7846 4.30998 25.2246 4.99998 25.2246C9.93498 25.2246 13.942 29.2317 13.942 34.1667C13.942 34.8567 13.382 35.4167 12.692 35.4167C12.002 35.4167 11.442 34.8567 11.442 34.1667C11.442 30.6117 8.55498 27.7246 4.99998 27.7246C4.30998 27.7246 3.74998 27.1646 3.74998 26.4746Z" fill="#00E990"/>
<path d="M3.94351 32.2769C4.33421 31.8862 4.86411 31.6667 5.41665 31.6667C5.96918 31.6667 6.49908 31.8862 6.88979 32.2769C7.28049 32.6676 7.49998 33.1975 7.49998 33.75C7.49998 34.3025 7.28049 34.8324 6.88979 35.2231C6.49908 35.6138 5.96918 35.8333 5.41665 35.8333C4.86411 35.8333 4.33421 35.6138 3.94351 35.2231C3.55281 34.8324 3.33331 34.3025 3.33331 33.75C3.33331 33.1975 3.55281 32.6676 3.94351 32.2769Z" fill="#00E990"/>
</svg>
