<svg width="40" height="40" viewBox="0 0 40 40" fill="none" xmlns="http://www.w3.org/2000/svg">
<path d="M36 8.66661C36 5.53658 33.4586 3 30.3226 3H9.67742C6.54142 3 4 5.53658 4 8.66661C4 12.7589 4 18.9963 4 23.0887C4 26.2187 6.54142 28.7553 9.67742 28.7553H30.3226C33.4586 28.7553 36 26.2187 36 23.0887V8.66661ZM32.9032 8.66661V23.0887C32.9032 24.5125 31.7471 25.6644 30.3226 25.6644H9.67742C8.2529 25.6644 7.09677 24.5125 7.09677 23.0887V8.66661C7.09677 7.24481 8.2529 6.09088 9.67742 6.09088H30.3226C31.7471 6.09088 32.9032 7.24481 32.9032 8.66661ZM8.49032 36.9152L13.8601 35.0689C17.824 33.7027 22.1265 33.6801 26.1068 34.9988C29.0674 35.9818 31.8978 36.9214 31.8978 36.9214C32.7092 37.1893 33.5866 36.7504 33.857 35.9426C34.1254 35.1328 33.6857 34.257 32.8764 33.9871C32.8764 33.9871 30.0439 33.0475 27.0834 32.0666C22.4588 30.5336 17.4565 30.5603 12.8506 32.1449C10.0759 33.1011 7.48077 33.9933 7.48077 33.9933C6.67355 34.2715 6.24413 35.1513 6.52284 35.957C6.80155 36.7648 7.6831 37.1934 8.49032 36.9152Z" fill="white"/>
<path d="M20.5008 20.0856C19.8341 20.0856 19.2198 20.3236 18.7256 20.7245C18.1655 21.1803 17.3684 21.0577 16.947 20.4517C16.5273 19.8458 16.6407 18.9855 17.2008 18.5296C18.1198 17.7828 19.2621 17.3398 20.5008 17.3398C21.7379 17.3398 22.8802 17.7828 23.8008 18.5296C24.361 18.9855 24.4727 19.8458 24.053 20.4517C23.6316 21.0577 22.8362 21.1803 22.2761 20.7245C21.7802 20.3236 21.1659 20.0856 20.5008 20.0856Z" fill="#00E990"/>
<path d="M20.5008 14.7459C19.1995 14.7459 17.9979 15.2108 17.0316 15.9961C16.4715 16.4519 15.6761 16.3293 15.2547 15.7234C14.8333 15.1175 14.9467 14.2571 15.5068 13.8013C16.8979 12.67 18.6275 12 20.5008 12C22.3725 12 24.1021 12.67 25.4932 13.8013C26.0533 14.2571 26.1667 15.1175 25.7453 15.7234C25.3256 16.3293 24.5285 16.4519 23.9684 15.9961C23.0021 15.2108 21.8005 14.7459 20.5008 14.7459Z" fill="#00E990"/>
</svg>
