<svg width="59" height="40" viewBox="0 0 59 40" fill="none" xmlns="http://www.w3.org/2000/svg">
<path fill-rule="evenodd" clip-rule="evenodd" d="M22.3849 7.91663C20.0703 7.91663 18.1918 9.22163 18.1918 10.8333V29.1666C18.1918 30.7783 20.0703 32.0833 22.3849 32.0833H36.7609C39.0755 32.0833 40.954 30.7783 40.954 29.1666V10.8333C40.954 9.22163 39.0755 7.91663 36.7609 7.91663H22.3849ZM22.3849 10.4166H36.7609C37.0916 10.4166 37.3599 10.6033 37.3599 10.8333V29.1666C37.3599 29.3966 37.0916 29.5833 36.7609 29.5833H22.3849C22.0542 29.5833 21.7859 29.3966 21.7859 29.1666V10.8333C21.7859 10.6033 22.0542 10.4166 22.3849 10.4166Z" fill="white"/>
<path d="M27.7759 23.3333C27.7759 22.6433 28.5809 22.0833 29.5729 22.0833C30.5648 22.0833 31.3699 22.6433 31.3699 23.3333V26.6666C31.3699 27.3566 30.5648 27.9166 29.5729 27.9166C28.5809 27.9166 27.7759 27.3566 27.7759 26.6666V23.3333Z" fill="#00E990"/>
<path fill-rule="evenodd" clip-rule="evenodd" d="M12.8011 2.08337C7.83877 2.08337 3.81573 4.88171 3.81573 8.33337V31.6667C3.81573 35.1184 7.83877 37.9167 12.8011 37.9167H46.3464C51.3087 37.9167 55.3317 35.1184 55.3317 31.6667V8.33337C55.3317 4.88171 51.3087 2.08337 46.3464 2.08337H12.8011ZM12.8011 4.58337H46.3464C49.3247 4.58337 51.7376 6.26171 51.7376 8.33337V31.6667C51.7376 33.7384 49.3247 35.4167 46.3464 35.4167H12.8011C9.82274 35.4167 7.40987 33.7384 7.40987 31.6667V8.33337C7.40987 6.26171 9.82274 4.58337 12.8011 4.58337Z" fill="white" fill-opacity="0.5"/>
</svg>
