<svg width="19" height="18" viewBox="0 0 19 18" fill="none" xmlns="http://www.w3.org/2000/svg">
<path d="M8.17221 9.90372L8.52574 10.2511L8.87623 9.90066L11.6313 7.1456C11.6932 7.08368 11.7466 7.06491 11.8195 7.06711C11.9 7.06955 11.9639 7.09413 12.0302 7.15752C12.0889 7.22448 12.1138 7.29109 12.1164 7.3743C12.1184 7.43573 12.1032 7.48694 12.0379 7.55224L8.71623 10.8739C8.64737 10.9428 8.58982 10.962 8.52268 10.962C8.45554 10.962 8.39799 10.9428 8.32913 10.8739L6.64874 9.19355C6.60838 9.15319 6.58025 9.10239 6.58025 9C6.58025 8.89762 6.60838 8.84681 6.64874 8.80645C6.71428 8.74091 6.77391 8.71842 6.85206 8.71842C6.94331 8.71842 6.99245 8.74352 7.03584 8.78691L7.03583 8.78692L7.03893 8.78997L8.17221 9.90372ZM5.90398 16.875L5.90391 16.8751L5.90844 16.8824C6.07256 17.1491 6.31059 17.3417 6.61113 17.4383C6.91218 17.5351 7.21819 17.5165 7.50661 17.3933C7.50714 17.393 7.50767 17.3928 7.5082 17.3926L9.34334 16.6162L11.1785 17.3926C11.1789 17.3928 11.1793 17.3929 11.1798 17.3931C11.4683 17.5164 11.7744 17.5351 12.0755 17.4383C12.3761 17.3417 12.6141 17.1491 12.7782 16.8824L12.7783 16.8825L12.7827 16.875L13.8051 15.1476L15.7379 14.7259C16.056 14.6611 16.3202 14.4891 16.5097 14.2259C16.6982 13.9642 16.778 13.6609 16.7376 13.3401L16.5444 11.3546L17.8651 9.84009C18.0773 9.60463 18.1867 9.31662 18.1867 9C18.1867 8.68339 18.0773 8.39539 17.8651 8.15994L16.5444 6.64544L16.7376 4.65991C16.778 4.33915 16.6982 4.03582 16.5097 3.77414C16.3202 3.51086 16.056 3.33891 15.7379 3.2741L13.8051 2.8524L12.7827 1.12496L12.7828 1.12492L12.7782 1.11757C12.6141 0.850865 12.3761 0.658271 12.0755 0.561669C11.7744 0.464861 11.4682 0.48356 11.1797 0.606901C11.1793 0.607074 11.1789 0.607247 11.1785 0.60742L9.34334 1.38382L7.5082 0.60742C7.50781 0.607254 7.50742 0.607088 7.50703 0.606923C7.21849 0.483562 6.91233 0.464855 6.61113 0.561669C6.31059 0.658271 6.07256 0.850865 5.90843 1.11758L5.90837 1.11754L5.90398 1.12496L4.88161 2.8524L2.94883 3.2741C2.63068 3.3389 2.3665 3.51085 2.17693 3.77414L2.58269 4.06629L2.17693 3.77414C1.98852 4.03581 1.90867 4.33913 1.94903 4.65988L2.14231 6.64544L0.82156 8.15991C0.609334 8.39536 0.5 8.68338 0.5 9C0.5 9.31662 0.609334 9.60464 0.821565 9.8401L2.14231 11.3546L1.94903 13.3401C1.90867 13.6609 1.98852 13.9642 2.17693 14.2259C2.36649 14.4891 2.63068 14.6611 2.94882 14.7259L4.88161 15.1476L5.90398 16.875Z" fill="#00E990" stroke="#182835"/>
</svg>
