<svg width="40" height="40" viewBox="0 0 40 40" fill="none" xmlns="http://www.w3.org/2000/svg">
<path fill-rule="evenodd" clip-rule="evenodd" d="M11.6667 2.08337C9.56667 2.08337 7.55271 2.91608 6.06771 4.40108C4.58271 5.88608 3.75 7.90004 3.75 10V30C3.75 32.1 4.58271 34.114 6.06771 35.599C7.55271 37.084 9.56667 37.9167 11.6667 37.9167H15C17.1 37.9167 19.114 37.084 20.599 35.599C22.084 34.114 22.9167 32.1 22.9167 30V29.5834H31.6667C33.2783 29.5834 34.5833 28.2767 34.5833 26.6667C34.5833 25.0567 33.2783 23.75 31.6667 23.75H22.9167V10C22.9167 7.90004 22.084 5.88608 20.599 4.40108C19.114 2.91608 17.1 2.08337 15 2.08337H11.6667ZM11.6667 4.58337H15C16.4367 4.58337 17.8164 5.15199 18.8314 6.16866C19.848 7.18366 20.4167 8.56337 20.4167 10V23.75H13.3333C11.7217 23.75 10.4167 25.0567 10.4167 26.6667C10.4167 28.2767 11.7217 29.5834 13.3333 29.5834H20.4167V30C20.4167 31.4367 19.848 32.8164 18.8314 33.8314C17.8164 34.8481 16.4367 35.4167 15 35.4167H11.6667C10.23 35.4167 8.85029 34.8481 7.83529 33.8314C6.81862 32.8164 6.25 31.4367 6.25 30V10C6.25 8.56337 6.81862 7.18366 7.83529 6.16866C8.85029 5.15199 10.23 4.58337 11.6667 4.58337ZM9.16667 10C8.83515 10 8.5172 10.1317 8.28278 10.3662C8.04836 10.6006 7.91667 10.9185 7.91667 11.25C7.91667 11.5816 8.04836 11.8995 8.28278 12.1339C8.5172 12.3683 8.83515 12.5 9.16667 12.5C9.49819 12.5 9.81613 12.3683 10.0505 12.1339C10.285 11.8995 10.4167 11.5816 10.4167 11.25C10.4167 10.9185 10.285 10.6006 10.0505 10.3662C9.81613 10.1317 9.49819 10 9.16667 10ZM13.3333 10C13.0018 10 12.6839 10.1317 12.4494 10.3662C12.215 10.6006 12.0833 10.9185 12.0833 11.25C12.0833 11.5816 12.215 11.8995 12.4494 12.1339C12.6839 12.3683 13.0018 12.5 13.3333 12.5C13.6649 12.5 13.9828 12.3683 14.2172 12.1339C14.4516 11.8995 14.5833 11.5816 14.5833 11.25C14.5833 10.9185 14.4516 10.6006 14.2172 10.3662C13.9828 10.1317 13.6649 10 13.3333 10ZM17.5 10C17.1685 10 16.8505 10.1317 16.6161 10.3662C16.3817 10.6006 16.25 10.9185 16.25 11.25C16.25 11.5816 16.3817 11.8995 16.6161 12.1339C16.8505 12.3683 17.1685 12.5 17.5 12.5C17.8315 12.5 18.1495 12.3683 18.3839 12.1339C18.6183 11.8995 18.75 11.5816 18.75 11.25C18.75 10.9185 18.6183 10.6006 18.3839 10.3662C18.1495 10.1317 17.8315 10 17.5 10ZM9.16667 14.1667C8.83515 14.1667 8.5172 14.2984 8.28278 14.5328C8.04836 14.7672 7.91667 15.0852 7.91667 15.4167C7.91667 15.7482 8.04836 16.0662 8.28278 16.3006C8.5172 16.535 8.83515 16.6667 9.16667 16.6667C9.49819 16.6667 9.81613 16.535 10.0505 16.3006C10.285 16.0662 10.4167 15.7482 10.4167 15.4167C10.4167 15.0852 10.285 14.7672 10.0505 14.5328C9.81613 14.2984 9.49819 14.1667 9.16667 14.1667ZM13.3333 14.1667C13.0018 14.1667 12.6839 14.2984 12.4494 14.5328C12.215 14.7672 12.0833 15.0852 12.0833 15.4167C12.0833 15.7482 12.215 16.0662 12.4494 16.3006C12.6839 16.535 13.0018 16.6667 13.3333 16.6667C13.6649 16.6667 13.9828 16.535 14.2172 16.3006C14.4516 16.0662 14.5833 15.7482 14.5833 15.4167C14.5833 15.0852 14.4516 14.7672 14.2172 14.5328C13.9828 14.2984 13.6649 14.1667 13.3333 14.1667ZM17.5 14.1667C17.1685 14.1667 16.8505 14.2984 16.6161 14.5328C16.3817 14.7672 16.25 15.0852 16.25 15.4167C16.25 15.7482 16.3817 16.0662 16.6161 16.3006C16.8505 16.535 17.1685 16.6667 17.5 16.6667C17.8315 16.6667 18.1495 16.535 18.3839 16.3006C18.6183 16.0662 18.75 15.7482 18.75 15.4167C18.75 15.0852 18.6183 14.7672 18.3839 14.5328C18.1495 14.2984 17.8315 14.1667 17.5 14.1667ZM9.16667 18.3334C8.83515 18.3334 8.5172 18.4651 8.28278 18.6995C8.04836 18.9339 7.91667 19.2519 7.91667 19.5834C7.91667 19.9149 8.04836 20.2328 8.28278 20.4673C8.5172 20.7017 8.83515 20.8334 9.16667 20.8334C9.49819 20.8334 9.81613 20.7017 10.0505 20.4673C10.285 20.2328 10.4167 19.9149 10.4167 19.5834C10.4167 19.2519 10.285 18.9339 10.0505 18.6995C9.81613 18.4651 9.49819 18.3334 9.16667 18.3334ZM13.3333 18.3334C13.0018 18.3334 12.6839 18.4651 12.4494 18.6995C12.215 18.9339 12.0833 19.2519 12.0833 19.5834C12.0833 19.9149 12.215 20.2328 12.4494 20.4673C12.6839 20.7017 13.0018 20.8334 13.3333 20.8334C13.6649 20.8334 13.9828 20.7017 14.2172 20.4673C14.4516 20.2328 14.5833 19.9149 14.5833 19.5834C14.5833 19.2519 14.4516 18.9339 14.2172 18.6995C13.9828 18.4651 13.6649 18.3334 13.3333 18.3334ZM17.5 18.3334C17.1685 18.3334 16.8505 18.4651 16.6161 18.6995C16.3817 18.9339 16.25 19.2519 16.25 19.5834C16.25 19.9149 16.3817 20.2328 16.6161 20.4673C16.8505 20.7017 17.1685 20.8334 17.5 20.8334C17.8315 20.8334 18.1495 20.7017 18.3839 20.4673C18.6183 20.2328 18.75 19.9149 18.75 19.5834C18.75 19.2519 18.6183 18.9339 18.3839 18.6995C18.1495 18.4651 17.8315 18.3334 17.5 18.3334ZM13.3333 26.25H21.6667H31.6667C31.8967 26.25 32.0833 26.4367 32.0833 26.6667C32.0833 26.8967 31.8967 27.0834 31.6667 27.0834H21.6667H13.3333C13.1033 27.0834 12.9167 26.8967 12.9167 26.6667C12.9167 26.4367 13.1033 26.25 13.3333 26.25Z" fill="white"/>
<path d="M25.5567 16.2245C25.1663 15.7055 25.2738 14.9665 25.7928 14.5762C27.0637 13.6224 28.6422 13.0578 30.3523 13.0578C32.0624 13.0578 33.6409 13.6224 34.9118 14.5762C35.4309 14.9665 35.5383 15.7055 35.1479 16.2245C34.7598 16.7435 34.0197 16.8456 33.4996 16.4563C32.6235 15.7975 31.5334 15.409 30.3523 15.4101C29.1712 15.409 28.0812 15.7975 27.205 16.4563C26.6849 16.8456 25.9448 16.7435 25.5567 16.2245Z" fill="#00E990"/>
<path d="M27.1011 19.4368C26.7118 18.9166 26.8149 18.1777 27.3328 17.7884C28.1757 17.1563 29.22 16.7823 30.3523 16.7834C31.4846 16.7823 32.5312 17.1563 33.3718 17.7884C33.8908 18.1788 33.9961 18.9156 33.6057 19.4346C33.2165 19.9547 32.4764 20.0611 31.9574 19.6707C31.5104 19.3347 30.9567 19.1346 30.3545 19.1335C29.7523 19.1346 29.1953 19.3336 28.7473 19.6707C28.2282 20.0589 27.4903 19.9547 27.1011 19.4368Z" fill="#00E990"/>
</svg>
