<svg width="11" height="18" viewBox="0 0 11 18" fill="none" xmlns="http://www.w3.org/2000/svg">
<path fill-rule="evenodd" clip-rule="evenodd" d="M6.62181 0.00026331C6.21282 0.00895642 5.82361 0.227036 5.60761 0.596853L0.163727 9.93349C-0.0533632 10.3055 -0.0543519 10.7642 0.159466 11.1373C0.374375 11.5115 0.77155 11.7424 1.20137 11.7424H3.45136L2.83773 16.6494C2.76682 17.2156 3.10307 17.753 3.64526 17.9363C4.18635 18.1196 4.78268 17.8967 5.07068 17.4036L10.5146 8.06701C10.7317 7.69501 10.7326 7.23627 10.5188 6.86318C10.3039 6.489 9.90674 6.25807 9.47692 6.25807H7.22693L7.84056 1.35111C7.91147 0.784933 7.57521 0.247456 7.03303 0.0641837C6.89776 0.0183656 6.75814 -0.00263436 6.62181 0.00026331ZM5.95491 3.25168L5.48829 6.9761C5.45884 7.20956 5.53154 7.44284 5.68645 7.61957C5.84135 7.79521 6.06554 7.89443 6.30008 7.89443H8.72266L4.72338 14.7488L5.19 11.0244C5.21945 10.7909 5.14675 10.5577 4.99184 10.3809C4.83694 10.2053 4.61275 10.1061 4.37821 10.1061H1.95563L5.95491 3.25168Z" fill="#00E990"/>
</svg>
