<svg width="14" height="10" viewBox="0 0 14 10" fill="none" xmlns="http://www.w3.org/2000/svg">
<path d="M1.00016 5.31136L0.750371 5.32009C0.743687 5.12887 0.82672 4.96623 0.959092 4.8395C1.08746 4.71661 1.24557 4.63858 1.42825 4.63858C1.61094 4.63858 1.76904 4.71661 1.89741 4.83951L1.89753 4.83963L4.96035 7.77615L12.0972 0.943686C12.2216 0.824668 12.3749 0.758572 12.547 0.750683C12.7362 0.742004 12.902 0.815884 13.0355 0.943673C13.1633 1.06595 13.25 1.22205 13.25 1.40789C13.25 1.59373 13.1633 1.74983 13.0355 1.87211L5.60265 8.98791C5.60265 8.98792 5.60264 8.98792 5.60264 8.98792C5.42393 9.15902 5.2062 9.25 4.96022 9.25C4.71424 9.25 4.49651 9.15902 4.3178 8.98792L1.00016 5.31136ZM1.00016 5.31136L0.750371 5.32009C0.756497 5.49533 0.828983 5.64794 0.954317 5.76791C0.954322 5.76792 0.954327 5.76792 0.954332 5.76793L4.31779 8.98791L1.00016 5.31136Z" fill="black" stroke="black" stroke-width="0.5"/>
</svg>
