<svg width="55" height="48" viewBox="0 0 55 48" fill="none" xmlns="http://www.w3.org/2000/svg">
<path d="M10.88 4.79753C7.89708 4.79753 5.44001 6.96438 5.44001 9.59498V12.7933C5.42551 13.676 6.2276 14.4015 7.22856 14.4143C8.22952 14.4271 9.05217 13.7213 9.06668 12.837V12.7933V9.59498C9.06668 8.69146 9.85548 7.99583 10.88 7.99583H14.5067C15.5076 8.00862 16.3303 7.30127 16.3448 6.41854C16.3593 5.53582 15.559 4.81033 14.5563 4.79753H14.5067H10.88ZM39.8933 4.79753C38.8924 4.78474 38.0697 5.49209 38.0552 6.37482C38.0407 7.25755 38.841 7.98304 39.8438 7.99583H39.8933H43.52C44.5445 7.99583 45.3333 8.69146 45.3333 9.59498V12.7933C45.3188 13.676 46.1209 14.4015 47.1219 14.4143C48.1228 14.4271 48.9455 13.7213 48.96 12.837V12.7933V9.59498C48.96 6.96438 46.5029 4.79753 43.52 4.79753H39.8933ZM27.2036 12.787C16.4142 12.787 9.43445 23.0864 9.30751 23.2783C9.14431 23.4862 9.05251 23.7252 9.05251 23.9811C9.05251 24.1889 9.10621 24.3982 9.23314 24.5901H9.25085C9.26898 24.6381 15.1268 35.1751 27.2036 35.1751C39.226 35.1751 45.066 24.7337 45.1386 24.6057C45.1567 24.6057 45.1563 24.5901 45.1563 24.5901C45.2832 24.3982 45.3546 24.1889 45.3546 23.9811C45.3546 23.7252 45.2628 23.4862 45.0996 23.2783C45.0271 23.1824 43.2527 20.5593 40.1519 17.9686C37.0511 15.362 32.5892 12.787 27.2036 12.787ZM27.2036 16.1446C31.882 16.1446 35.6717 19.6474 35.6717 23.9811C35.6717 28.2987 31.882 31.8175 27.2036 31.8175C22.5252 31.8175 18.7354 28.2987 18.7354 23.9811C18.7354 19.6474 22.5252 16.1446 27.2036 16.1446ZM27.2 20.6609C25.1945 20.6609 23.5698 22.0937 23.5698 23.8624C23.5698 25.631 25.1945 27.0638 27.2 27.0638C29.2056 27.0638 30.8302 25.631 30.8302 23.8624C30.8302 22.0937 29.2056 20.6609 27.2 20.6609ZM7.22501 33.5603C6.22405 33.5747 5.42551 34.3002 5.44001 35.1813V38.3796C5.44001 41.0102 7.89708 43.1771 10.88 43.1771H14.5067C15.5076 43.1899 16.3303 42.4825 16.3448 41.5998C16.3593 40.7171 15.559 39.9916 14.5563 39.9788H14.5067H10.88C9.85548 39.9788 9.06668 39.2831 9.06668 38.3796V35.1813C9.08119 34.2986 8.2791 33.5731 7.27814 33.5603H7.22501ZM47.1183 33.5603C46.1192 33.5747 45.3188 34.3002 45.3333 35.1813V38.3796C45.3333 39.2831 44.5445 39.9788 43.52 39.9788H39.8933C38.8924 39.966 38.0697 40.6733 38.0552 41.5561C38.0407 42.4388 38.8428 43.1643 39.8438 43.1771H39.8933H43.52C46.5029 43.1771 48.96 41.0102 48.96 38.3796V35.1813C48.9745 34.2986 48.1724 33.5731 47.1715 33.5603H47.1183Z" fill="#00E990"/>
</svg>
